# xmcd
#
# Track frame offsets: 
#        150
#        15341
#        36656
#        58782
#        93810
#        110315
#        139038
#
# Disc length: 2149 seconds
#
# Revision: 0
# Processed by: cddbd v1.5.2PL0 Copyright (c) Steve Scherf et al.
# Submitted via: ExactAudioCopy v1.0b1
#
DISCID=53086307
DTITLE=Big Mama Thornton - The Complete Vanguard Recordin CD2
DYEAR=2000
DGENRE=Blues
TTITLE0=Rolling Stone
TTITLE1=Lost City
TTITLE2=Mr. Cool
TTITLE3=Big Mama's New Love 
TTITLE4=Private Number
TTITLE5=Sassy Mama
TTITLE6=Everybody's Happy (But Me)
EXTD=
EXTT0=
EXTT1=
EXTT2=
EXTT3=
EXTT4=
EXTT5=
EXTT6=
PLAYORDER=
